<svg width="35" height="35" viewBox="0 0 35 35" fill="none" xmlns="http://www.w3.org/2000/svg">
<g clip-path="url(#clip0_236_11)">
<path d="M17.5 35C7.8365 35 0 27.1635 0 17.5C0 7.8365 7.8365 0 17.5 0C27.1635 0 35 7.8365 35 17.5C35 27.1635 27.1635 35 17.5 35Z" fill="url(#paint0_linear_236_11)"/>
<path d="M17.5 7.707C20.6885 7.707 21.0665 7.7175 22.3265 7.777C23.492 7.8295 24.1255 8.0255 24.5455 8.19C25.102 8.407 25.501 8.666 25.9175 9.0825C26.334 9.499 26.593 9.89801 26.81 10.4545C26.9745 10.8745 27.167 11.508 27.223 12.6735C27.279 13.9335 27.293 14.3115 27.293 17.5C27.293 20.6885 27.2825 21.0665 27.223 22.3265C27.1705 23.492 26.9745 24.1255 26.81 24.5455C26.593 25.102 26.334 25.501 25.9175 25.9175C25.501 26.334 25.102 26.593 24.5455 26.81C24.1255 26.9745 23.492 27.167 22.3265 27.223C21.0665 27.279 20.6885 27.293 17.5 27.293C14.3115 27.293 13.9335 27.2825 12.6735 27.223C11.508 27.1705 10.8745 26.9745 10.4545 26.81C9.89803 26.593 9.49903 26.334 9.08253 25.9175C8.66603 25.501 8.40703 25.102 8.19003 24.5455C8.02553 24.1255 7.83302 23.492 7.77702 22.3265C7.72102 21.0665 7.70703 20.6885 7.70703 17.5C7.70703 14.3115 7.71753 13.9335 7.77702 12.6735C7.82952 11.508 8.02553 10.8745 8.19003 10.4545C8.40703 9.89801 8.66603 9.499 9.08253 9.0825C9.49903 8.666 9.89803 8.407 10.4545 8.19C10.8745 8.0255 11.508 7.833 12.6735 7.777C13.9335 7.7175 14.3115 7.707 17.5 7.707ZM17.5 5.5545C14.2555 5.5545 13.8495 5.5685 12.5755 5.628C11.305 5.6875 10.437 5.887 9.67403 6.1845C8.89002 6.4855 8.22153 6.895 7.56003 7.56C6.89503 8.225 6.48903 8.89 6.18103 9.6775C5.88703 10.437 5.68403 11.305 5.62453 12.579C5.56503 13.853 5.55103 14.259 5.55103 17.5035C5.55103 20.748 5.56503 21.154 5.62453 22.428C5.68403 23.6985 5.88353 24.5665 6.18103 25.3295C6.48553 26.11 6.89503 26.7785 7.56003 27.44C8.22503 28.105 8.89003 28.511 9.67753 28.819C10.437 29.113 11.305 29.316 12.579 29.3755C13.853 29.435 14.259 29.449 17.5035 29.449C20.748 29.449 21.154 29.435 22.428 29.3755C23.6985 29.316 24.5665 29.1165 25.3295 28.819C26.11 28.5145 26.7785 28.105 27.44 27.44C28.105 26.775 28.511 26.11 28.819 25.3225C29.113 24.563 29.316 23.695 29.3755 22.421C29.435 21.147 29.449 20.741 29.449 17.4965C29.449 14.252 29.435 13.846 29.3755 12.572C29.316 11.3015 29.1165 10.4335 28.819 9.6705C28.5145 8.89 28.105 8.2215 27.44 7.56C26.775 6.895 26.11 6.489 25.3225 6.181C24.563 5.887 23.695 5.684 22.421 5.6245C21.1505 5.5685 20.7445 5.5545 17.5 5.5545Z" fill="white"/>
<path d="M17.5 11.3645C14.112 11.3645 11.3645 14.112 11.3645 17.5C11.3645 20.888 14.112 23.6355 17.5 23.6355C20.888 23.6355 23.6355 20.888 23.6355 17.5C23.6355 14.112 20.888 11.3645 17.5 11.3645ZM17.5 21.483C15.302 21.483 13.517 19.7015 13.517 17.5C13.517 15.2985 15.302 13.517 17.5 13.517C19.698 13.517 21.483 15.2985 21.483 17.5C21.483 19.7015 19.698 21.483 17.5 21.483Z" fill="white"/>
<path d="M23.877 12.558C24.6695 12.558 25.312 11.9155 25.312 11.123C25.312 10.3305 24.6695 9.68799 23.877 9.68799C23.0845 9.68799 22.442 10.3305 22.442 11.123C22.442 11.9155 23.0845 12.558 23.877 12.558Z" fill="white"/>
</g>
<defs>
<linearGradient id="paint0_linear_236_11" x1="5.12564" y1="29.8744" x2="29.8744" y2="5.12564" gradientUnits="userSpaceOnUse">
<stop stop-color="#FFD521"/>
<stop offset="0.0551048" stop-color="#FFD020"/>
<stop offset="0.1241" stop-color="#FEC01E"/>
<stop offset="0.2004" stop-color="#FCA71B"/>
<stop offset="0.2821" stop-color="#FA8316"/>
<stop offset="0.3681" stop-color="#F85510"/>
<stop offset="0.4563" stop-color="#F51E09"/>
<stop offset="0.5" stop-color="#F30005"/>
<stop offset="0.5035" stop-color="#F20007"/>
<stop offset="0.5966" stop-color="#E1003B"/>
<stop offset="0.6879" stop-color="#D30067"/>
<stop offset="0.7757" stop-color="#C70088"/>
<stop offset="0.8589" stop-color="#BF00A0"/>
<stop offset="0.9357" stop-color="#BB00AF"/>
<stop offset="1" stop-color="#B900B4"/>
</linearGradient>
<clipPath id="clip0_236_11">
<rect width="35" height="35" fill="white"/>
</clipPath>
</defs>
</svg>
