<svg width="35" height="35" viewBox="0 0 35 35" fill="none" xmlns="http://www.w3.org/2000/svg">
<g clip-path="url(#clip0_237_17)">
<path d="M17.5 35C27.165 35 35 27.165 35 17.5C35 7.83502 27.165 0 17.5 0C7.83502 0 0 7.83502 0 17.5C0 27.165 7.83502 35 17.5 35Z" fill="#17A1E9"/>
<path d="M6.28769 10.9598C6.19366 10.8637 6.03052 10.9303 6.03052 11.0647V23.9188C6.03052 24.0535 6.19426 24.1199 6.28811 24.0233L12.5566 17.5703C12.6133 17.5119 12.6131 17.419 12.5561 17.3608L6.28769 10.9598Z" fill="white"/>
<path d="M28.7119 10.9626C28.8057 10.8659 28.9695 10.9324 28.9695 11.0671V23.9185C28.9695 24.0533 28.8057 24.1197 28.7119 24.023L22.4759 17.5973C22.4194 17.5391 22.4194 17.4465 22.4759 17.3884L28.7119 10.9626Z" fill="white"/>
<path d="M6.77619 10.3346C6.68463 10.2393 6.7522 10.0807 6.88438 10.0807H28.0728C28.2049 10.0807 28.2725 10.2393 28.1809 10.3346L19.8207 19.0397C19.2084 19.6773 18.3626 20.0377 17.4786 20.0377C16.5946 20.0377 15.7488 19.6773 15.1365 19.0397L6.77619 10.3346Z" fill="white"/>
<path d="M20.3171 19.5163C19.5789 20.285 18.5443 20.7259 17.4786 20.7259C16.4129 20.7259 15.3783 20.2851 14.6402 19.5164L13.289 18.1094C13.2299 18.048 13.1316 18.0479 13.0726 18.1094L6.7762 24.6654C6.68464 24.7607 6.7522 24.9193 6.88438 24.9193H28.0728C28.2049 24.9193 28.2725 24.7607 28.1809 24.6654L21.8846 18.1094C21.8256 18.048 21.7273 18.048 21.6682 18.1094L20.3171 19.5163Z" fill="white"/>
</g>
<defs>
<clipPath id="clip0_237_17">
<rect width="35" height="35" fill="white"/>
</clipPath>
</defs>
</svg>
