<svg width="35" height="35" viewBox="0 0 35 35" fill="none" xmlns="http://www.w3.org/2000/svg">
<g clip-path="url(#clip0_237_40)">
<path d="M17.5 35C7.8365 35 0 27.1635 0 17.5C0 7.8365 7.8365 0 17.5 0C27.1635 0 35 7.8365 35 17.5C35 27.1635 27.1635 35 17.5 35Z" fill="#0084C8"/>
<path d="M6.44706 13.5555H11.0986V28.525H6.44706V13.5555ZM8.77456 6.1145C10.2621 6.1145 11.4696 7.322 11.4696 8.813C11.4696 10.304 10.2621 11.5115 8.77456 11.5115C7.28356 11.5115 6.07606 10.304 6.07606 8.813C6.07256 7.3255 7.28006 6.1145 8.77456 6.1145Z" fill="white"/>
<path d="M14.0176 13.5555H18.4801V15.5995H18.5431C19.1626 14.4235 20.6781 13.181 22.9461 13.181C27.6571 13.181 28.5286 16.282 28.5286 20.3105V28.525H23.8771V21.2485C23.8771 19.509 23.8456 17.2795 21.4586 17.2795C19.0366 17.2795 18.6656 19.1695 18.6656 21.1225V28.5285H14.0176V13.5555Z" fill="white"/>
</g>
<defs>
<clipPath id="clip0_237_40">
<rect width="35" height="35" fill="white"/>
</clipPath>
</defs>
</svg>
