<svg width="148" height="76" viewBox="0 0 148 76" fill="none" xmlns="http://www.w3.org/2000/svg">
<path d="M60.4882 49.3159H75.7324C80.7494 49.3159 85.0107 48.3287 88.5163 46.3541C92.0218 44.3635 94.6911 41.522 96.5243 37.8298C98.3575 34.1214 99.274 29.6987 99.274 24.5617C99.274 19.4567 98.3655 15.0741 96.5484 11.4139C94.7313 7.73772 92.1183 4.92036 88.7092 2.96185C85.3002 0.987282 81.1997 0 76.4078 0H60.4882V19.3589C60.7298 19.0434 61.112 19.0553 61.548 19.0689C61.6394 19.0718 61.7332 19.0747 61.8286 19.0747H62.487C63.8508 19.054 64.4673 18.8189 67.1325 16.3524C69.5311 13.3439 73.1822 11.6089 77.0297 11.6493C81.6716 11.6493 85.9611 14.1261 88.2819 18.1462C90.6031 22.1667 90.6031 27.1194 88.2819 31.1396C85.9613 35.1599 81.6718 37.6365 77.0297 37.6365C73.1743 37.7151 69.5069 35.9722 67.1325 32.9334C64.4673 30.4672 63.8508 30.211 62.487 30.211H62.3877C61.2539 30.211 61.5779 29.2912 61.5779 29.2912L62.7849 24.0972L60.4882 26.8617V49.3159Z" fill="white"/>
<path d="M57.2211 18.6677C57.784 18.7954 58.1368 19.3552 58.009 19.9181L55.7622 29.8206C55.6344 30.3834 55.0746 30.7362 54.5117 30.6085C53.9488 30.4808 53.596 29.9209 53.7238 29.358L55.9706 19.4556C56.0984 18.8927 56.6582 18.5399 57.2211 18.6677Z" fill="white"/>
<path d="M54.2074 20.5374C54.3337 19.9742 53.9795 19.4153 53.4162 19.289C52.853 19.1628 52.2941 19.517 52.1678 20.0802L50.365 28.1223C50.2387 28.6856 50.5929 29.2445 51.1561 29.3708C51.7194 29.497 52.2783 29.1428 52.4046 28.5796L54.2074 20.5374Z" fill="white"/>
<path d="M50.1208 20.3324C50.6845 20.4568 51.0405 21.0146 50.916 21.5782L49.7501 26.8593C49.6257 27.4229 49.0679 27.779 48.5043 27.6545C47.9406 27.5301 47.5846 26.9723 47.709 26.4087L48.875 21.1276C48.9994 20.564 49.5572 20.208 50.1208 20.3324Z" fill="white"/>
<path d="M85.9304 20.625C85.9361 20.7683 85.8193 20.8847 85.6759 20.8847C85.5324 20.8847 85.4167 20.7683 85.4105 20.625C85.3706 19.7086 85.1202 18.8125 84.6772 18.0067C84.1924 17.1249 83.4927 16.3798 82.6431 15.8406C81.7935 15.3014 80.8215 14.9856 79.8172 14.9224C78.8994 14.8647 77.9819 15.0196 77.1358 15.3737C77.0034 15.4291 76.8489 15.374 76.7878 15.2442C76.7267 15.1144 76.7823 14.9591 76.9144 14.9033C77.8399 14.5122 78.8447 14.3407 79.8498 14.4039C80.9414 14.4726 81.998 14.8159 82.9215 15.402C83.845 15.9881 84.6055 16.7979 85.1324 17.7564C85.6176 18.6389 85.8902 19.6211 85.9304 20.625Z" fill="white"/>
<path d="M4.60728 57.0734C6.84242 57.0734 8.59448 57.6935 9.86347 58.9336C11.1469 60.1593 11.7886 61.9186 11.7886 64.2114C11.7886 66.5043 11.1469 68.2707 9.86347 69.5109C8.59448 70.7366 6.84242 71.3495 4.60728 71.3495H0V57.0734H4.60728ZM4.78032 69.7272C6.40981 69.7272 7.67879 69.2441 8.58727 68.2779C9.51017 67.2974 9.97162 65.9419 9.97162 64.2114C9.97162 62.481 9.51017 61.1327 8.58727 60.1665C7.67879 59.186 6.40981 58.6957 4.78032 58.6957H1.73043V69.7272H4.78032Z" fill="white"/>
<path d="M19.7854 71.5658C18.7616 71.5658 17.8459 71.3423 17.0383 70.8952C16.2452 70.4482 15.6252 69.8065 15.1781 68.9701C14.7311 68.1193 14.5076 67.1099 14.5076 65.9419C14.5076 64.7738 14.7311 63.7716 15.1781 62.9352C15.6252 62.0844 16.238 61.4355 17.0167 60.9885C17.7954 60.5415 18.6822 60.318 19.6772 60.318C20.6867 60.318 21.5447 60.5343 22.2513 60.9669C22.9723 61.3995 23.5203 61.9907 23.8952 62.7406C24.2701 63.476 24.4576 64.3052 24.4576 65.2281C24.4576 65.4732 24.4504 65.6967 24.4359 65.8986C24.4215 66.1005 24.3999 66.2807 24.371 66.4394H15.6324V64.9036H23.614L22.7271 65.0766C22.7271 64.0384 22.4387 63.2381 21.8619 62.6757C21.2995 62.1133 20.5569 61.8321 19.634 61.8321C18.9274 61.8321 18.3145 61.9979 17.7954 62.3296C17.2907 62.6468 16.8941 63.1155 16.6057 63.7356C16.3317 64.3412 16.1948 65.0766 16.1948 65.9419C16.1948 66.7927 16.339 67.5281 16.6274 68.1482C16.9158 68.7682 17.3195 69.2441 17.8387 69.5758C18.3722 69.893 19.0067 70.0516 19.7421 70.0516C20.5353 70.0516 21.177 69.9002 21.6672 69.5974C22.172 69.2946 22.5757 68.8836 22.8785 68.3645L24.2413 69.1648C23.9673 69.6551 23.614 70.0805 23.1814 70.441C22.7632 70.8015 22.2657 71.0827 21.6889 71.2846C21.1265 71.472 20.492 71.5658 19.7854 71.5658Z" fill="white"/>
<path d="M31.6421 71.5658C30.5894 71.5658 29.616 71.3423 28.722 70.8952C27.8423 70.4482 27.1646 69.8137 26.6887 68.9917L28.1596 67.9319C28.4768 68.5952 28.9383 69.1143 29.5439 69.4893C30.164 69.8642 30.9066 70.0516 31.7719 70.0516C32.5361 70.0516 33.1346 69.9074 33.5672 69.619C33.9998 69.3162 34.2161 68.9269 34.2161 68.451C34.2161 68.1482 34.1151 67.8742 33.9133 67.629C33.7258 67.3695 33.3581 67.182 32.8101 67.0667L30.2145 66.5259C29.1618 66.3096 28.4047 65.9491 27.9433 65.4444C27.4962 64.9397 27.2727 64.3124 27.2727 63.5625C27.2727 62.9713 27.4386 62.4305 27.7702 61.9402C28.1163 61.4499 28.5994 61.0606 29.2195 60.7722C29.854 60.4694 30.5966 60.318 31.4474 60.318C32.5145 60.318 33.4158 60.5271 34.1512 60.9452C34.8866 61.3634 35.4346 61.9547 35.7951 62.7189L34.3459 63.6707C34.1007 63.0362 33.7042 62.5747 33.1562 62.2863C32.6082 61.9835 32.0386 61.8321 31.4474 61.8321C30.9283 61.8321 30.4812 61.9042 30.1063 62.0484C29.7458 62.1926 29.4646 62.3945 29.2627 62.654C29.0753 62.8992 28.9815 63.1804 28.9815 63.4976C28.9815 63.8149 29.0897 64.1105 29.306 64.3845C29.5223 64.644 29.9261 64.8315 30.5173 64.9469L33.2211 65.5093C34.2305 65.7111 34.9371 66.0428 35.3409 66.5043C35.7446 66.9657 35.9465 67.5281 35.9465 68.1914C35.9465 68.8692 35.7663 69.4676 35.4058 69.9867C35.0453 70.4915 34.5406 70.8808 33.8916 71.1548C33.2427 71.4288 32.4929 71.5658 31.6421 71.5658Z" fill="white"/>
<path d="M40.0205 58.4577C39.6311 58.4577 39.3139 58.3424 39.0687 58.1117C38.838 57.8665 38.7227 57.5493 38.7227 57.1599C38.7227 56.7706 38.838 56.4605 39.0687 56.2298C39.3139 55.9847 39.6311 55.8621 40.0205 55.8621C40.4098 55.8621 40.7199 55.9847 40.9506 56.2298C41.1957 56.4605 41.3183 56.7706 41.3183 57.1599C41.3183 57.5493 41.1957 57.8665 40.9506 58.1117C40.7199 58.3424 40.4098 58.4577 40.0205 58.4577ZM40.8857 60.5343V71.3495H39.1553V60.5343H40.8857Z" fill="white"/>
<path d="M54.0072 58.5443L54.3966 60.08C54.3822 60.08 54.3605 60.08 54.3317 60.08C54.3029 60.08 54.274 60.08 54.2452 60.08C53.5386 60.08 52.9906 60.2242 52.6013 60.5126C52.2263 60.7866 52.0389 61.2336 52.0389 61.8537L50.979 61.313C50.979 60.7506 51.1088 60.2603 51.3683 59.8421C51.6279 59.4239 51.9812 59.1067 52.4282 58.8904C52.8752 58.6596 53.3655 58.5443 53.8991 58.5443C53.9135 58.5443 53.9279 58.5443 53.9423 58.5443C53.9712 58.5443 53.9928 58.5443 54.0072 58.5443ZM50.7194 69.9651C51.7433 69.9651 52.5436 70.2031 53.1204 70.6789C53.6972 71.1404 53.9856 71.7604 53.9856 72.5391C53.9856 73.2457 53.7477 73.8586 53.2718 74.3777C52.8104 74.8969 52.1831 75.2934 51.39 75.5674C50.6113 75.8558 49.7316 76 48.751 76C47.0495 76 45.7733 75.7116 44.9225 75.1348C44.0861 74.558 43.6679 73.8658 43.6679 73.0583C43.6679 72.4815 43.8554 71.9623 44.2303 71.5009C44.6196 71.0538 45.2686 70.8015 46.177 70.7438L46.0256 71.0683C45.5353 70.9385 45.1171 70.7222 44.7711 70.4194C44.4394 70.1021 44.2736 69.6479 44.2736 69.0566C44.2736 68.4654 44.4899 67.9607 44.9225 67.5425C45.3695 67.1099 46.0256 66.8431 46.8908 66.7422L48.0372 67.3262H47.8209C47.1143 67.3983 46.6096 67.5786 46.3068 67.867C46.0184 68.141 45.8742 68.4438 45.8742 68.7754C45.8742 69.1792 46.0184 69.482 46.3068 69.6839C46.6096 69.8714 47.0278 69.9651 47.5614 69.9651H50.7194ZM48.7294 74.5508C49.5658 74.5508 50.2508 74.4642 50.7843 74.2912C51.3323 74.1182 51.736 73.8946 51.9956 73.6207C52.2552 73.3467 52.385 73.051 52.385 72.7338C52.385 72.3445 52.2263 72.0344 51.9091 71.8037C51.6063 71.573 51.0511 71.4576 50.2435 71.4576H46.9125C46.451 71.4576 46.0617 71.573 45.7444 71.8037C45.4272 72.0488 45.2686 72.3805 45.2686 72.7987C45.2686 73.3322 45.5714 73.7576 46.177 74.0749C46.7971 74.3921 47.6479 74.5508 48.7294 74.5508ZM48.578 60.318C49.4432 60.318 50.2075 60.4766 50.8708 60.7938C51.5486 61.0967 52.0749 61.5221 52.4499 62.07C52.8248 62.618 53.0122 63.2525 53.0122 63.9735C53.0122 64.6801 52.8248 65.3146 52.4499 65.877C52.0749 66.4249 51.5486 66.8575 50.8708 67.1748C50.2075 67.4776 49.4432 67.629 48.578 67.629C47.1504 67.629 46.0545 67.2902 45.2902 66.6124C44.5259 65.9202 44.1438 65.0406 44.1438 63.9735C44.1438 63.2525 44.3312 62.618 44.7062 62.07C45.0955 61.5221 45.6219 61.0967 46.2852 60.7938C46.9485 60.4766 47.7128 60.318 48.578 60.318ZM48.578 61.7239C47.8282 61.7239 47.2009 61.933 46.6962 62.3512C46.1914 62.755 45.9391 63.2957 45.9391 63.9735C45.9391 64.6368 46.1914 65.1776 46.6962 65.5958C47.2009 66.014 47.8282 66.2231 48.578 66.2231C49.3279 66.2231 49.9551 66.014 50.4599 65.5958C50.9646 65.1776 51.2169 64.6368 51.2169 63.9735C51.2169 63.2957 50.9646 62.755 50.4599 62.3512C49.9551 61.933 49.3279 61.7239 48.578 61.7239Z" fill="white"/>
<path d="M56.4131 71.3495V60.5343H57.9272L58.0787 62.9569L57.7975 62.7189C58.0282 62.1421 58.3382 61.6807 58.7276 61.3346C59.1169 60.9741 59.5639 60.7145 60.0687 60.5559C60.5878 60.3973 61.1213 60.318 61.6693 60.318C62.448 60.318 63.1546 60.4694 63.7891 60.7722C64.4236 61.0606 64.9283 61.5076 65.3032 62.1133C65.6926 62.7189 65.8872 63.4904 65.8872 64.4277V71.3495H64.1568V65.0334C64.1568 63.8365 63.8972 63.0073 63.3781 62.5459C62.8734 62.07 62.2461 61.8321 61.4963 61.8321C60.9771 61.8321 60.458 61.9547 59.9389 62.1998C59.4197 62.4449 58.9871 62.8415 58.641 63.3895C58.3094 63.9374 58.1435 64.6729 58.1435 65.5958V71.3495H56.4131Z" fill="white"/>
<path d="M74.6315 57.0734C76.8666 57.0734 78.6187 57.6935 79.8877 58.9336C81.1711 60.1593 81.8128 61.9186 81.8128 64.2114C81.8128 66.5043 81.1711 68.2707 79.8877 69.5109C78.6187 70.7366 76.8666 71.3495 74.6315 71.3495H70.0242V57.0734H74.6315ZM74.8045 69.7272C76.434 69.7272 77.703 69.2441 78.6115 68.2779C79.5344 67.2974 79.9958 65.9419 79.9958 64.2114C79.9958 62.481 79.5344 61.1327 78.6115 60.1665C77.703 59.186 76.434 58.6957 74.8045 58.6957H71.7546V69.7272H74.8045Z" fill="white"/>
<path d="M85.1832 71.3495V60.5343H86.5892L86.8271 62.308C87.13 61.6446 87.5698 61.1471 88.1466 60.8155C88.7378 60.4838 89.4516 60.318 90.288 60.318C90.4755 60.318 90.6774 60.3324 90.8937 60.3612C91.1244 60.3901 91.3191 60.4477 91.4777 60.5343L91.1749 62.1133C91.0162 62.0556 90.8432 62.0123 90.6557 61.9835C90.4683 61.9547 90.2015 61.9402 89.8554 61.9402C89.4084 61.9402 88.9541 62.07 88.4927 62.3296C88.0457 62.5891 87.6707 62.9857 87.3679 63.5193C87.0651 64.0384 86.9137 64.7017 86.9137 65.5093V71.3495H85.1832Z" fill="white"/>
<path d="M98.1956 71.5658C97.1718 71.5658 96.2561 71.3423 95.4486 70.8952C94.6554 70.4482 94.0354 69.8065 93.5883 68.9701C93.1413 68.1193 92.9178 67.1099 92.9178 65.9419C92.9178 64.7738 93.1413 63.7716 93.5883 62.9352C94.0354 62.0844 94.6482 61.4355 95.4269 60.9885C96.2056 60.5415 97.0925 60.318 98.0875 60.318C99.0969 60.318 99.9549 60.5343 100.661 60.9669C101.383 61.3995 101.93 61.9907 102.305 62.7406C102.68 63.476 102.868 64.3052 102.868 65.2281C102.868 65.4732 102.861 65.6967 102.846 65.8986C102.832 66.1005 102.81 66.2807 102.781 66.4394H94.0426V64.9036H102.024L101.137 65.0766C101.137 64.0384 100.849 63.2381 100.272 62.6757C99.7097 62.1133 98.9671 61.8321 98.0442 61.8321C97.3376 61.8321 96.7248 61.9979 96.2056 62.3296C95.7009 62.6468 95.3044 63.1155 95.016 63.7356C94.742 64.3412 94.605 65.0766 94.605 65.9419C94.605 66.7927 94.7492 67.5281 95.0376 68.1482C95.326 68.7682 95.7298 69.2441 96.2489 69.5758C96.7824 69.893 97.4169 70.0516 98.1524 70.0516C98.9455 70.0516 99.5872 69.9002 100.077 69.5974C100.582 69.2946 100.986 68.8836 101.289 68.3645L102.651 69.1648C102.378 69.6551 102.024 70.0805 101.592 70.441C101.173 70.8015 100.676 71.0827 100.099 71.2846C99.5367 71.472 98.9022 71.5658 98.1956 71.5658Z" fill="white"/>
<path d="M112.475 64.3628C112.475 63.5553 112.259 62.9352 111.826 62.5026C111.393 62.0556 110.781 61.8321 109.987 61.8321C109.238 61.8321 108.603 61.9979 108.084 62.3296C107.565 62.6468 107.183 63.166 106.938 63.887L105.532 63.0218C105.82 62.2142 106.354 61.5653 107.132 61.075C107.911 60.5703 108.877 60.318 110.031 60.318C110.809 60.318 111.516 60.4549 112.15 60.7289C112.785 60.9885 113.282 61.3923 113.643 61.9402C114.018 62.4738 114.205 63.166 114.205 64.0168V69.2513C114.205 69.7704 114.479 70.03 115.027 70.03C115.301 70.03 115.568 69.994 115.828 69.9219L115.741 71.2846C115.453 71.4288 115.078 71.5009 114.616 71.5009C114.198 71.5009 113.823 71.4216 113.492 71.2629C113.16 71.1043 112.9 70.8664 112.713 70.5491C112.525 70.2175 112.432 69.8065 112.432 69.3162V69.0999L112.864 69.1648C112.691 69.7272 112.396 70.1886 111.977 70.5491C111.559 70.8952 111.091 71.1548 110.571 71.3278C110.052 71.4865 109.54 71.5658 109.036 71.5658C108.401 71.5658 107.81 71.4576 107.262 71.2413C106.714 71.025 106.274 70.7006 105.943 70.2679C105.625 69.8209 105.467 69.273 105.467 68.624C105.467 67.8165 105.733 67.1532 106.267 66.634C106.815 66.1005 107.572 65.74 108.538 65.5525L112.821 64.7089V66.1365L109.338 66.8503C108.632 66.9945 108.106 67.1964 107.759 67.456C107.413 67.7156 107.24 68.0761 107.24 68.5375C107.24 68.9845 107.413 69.3523 107.759 69.6407C108.12 69.9146 108.625 70.0516 109.274 70.0516C109.692 70.0516 110.088 70.0012 110.463 69.9002C110.853 69.7849 111.199 69.619 111.502 69.4027C111.804 69.172 112.042 68.8908 112.215 68.5591C112.388 68.2131 112.475 67.8093 112.475 67.3478V64.3628Z" fill="white"/>
<path d="M118.41 71.3495V60.5343H119.925L120.033 62.2214C120.422 61.5581 120.927 61.075 121.547 60.7722C122.181 60.4694 122.83 60.318 123.494 60.318C124.258 60.318 124.979 60.491 125.657 60.8371C126.334 61.1832 126.853 61.7167 127.214 62.4377C127.445 61.9475 127.769 61.5509 128.187 61.2481C128.606 60.9308 129.06 60.7001 129.55 60.5559C130.055 60.3973 130.531 60.318 130.978 60.318C131.67 60.318 132.326 60.4622 132.946 60.7506C133.581 61.039 134.1 61.486 134.503 62.0916C134.907 62.6973 135.109 63.476 135.109 64.4277V71.3495H133.379V64.6008C133.379 63.6202 133.134 62.9136 132.643 62.481C132.153 62.0484 131.547 61.8321 130.826 61.8321C130.264 61.8321 129.738 61.9691 129.247 62.2431C128.757 62.517 128.36 62.9208 128.058 63.4544C127.769 63.9879 127.625 64.644 127.625 65.4227V71.3495H125.895V64.6008C125.895 63.6202 125.649 62.9136 125.159 62.481C124.669 62.0484 124.063 61.8321 123.342 61.8321C122.866 61.8321 122.376 61.9619 121.871 62.2214C121.381 62.4666 120.97 62.8631 120.638 63.4111C120.307 63.9591 120.141 64.6801 120.141 65.5742V71.3495H118.41Z" fill="white"/>
<path d="M142.92 71.5658C141.868 71.5658 140.894 71.3423 140 70.8952C139.121 70.4482 138.443 69.8137 137.967 68.9917L139.438 67.9319C139.755 68.5952 140.217 69.1143 140.822 69.4893C141.442 69.8642 142.185 70.0516 143.05 70.0516C143.814 70.0516 144.413 69.9074 144.845 69.619C145.278 69.3162 145.494 68.9269 145.494 68.451C145.494 68.1482 145.393 67.8742 145.192 67.629C145.004 67.3695 144.636 67.182 144.088 67.0667L141.493 66.5259C140.44 66.3096 139.683 65.9491 139.222 65.4444C138.775 64.9397 138.551 64.3124 138.551 63.5625C138.551 62.9713 138.717 62.4305 139.049 61.9402C139.395 61.4499 139.878 61.0606 140.498 60.7722C141.132 60.4694 141.875 60.318 142.726 60.318C143.793 60.318 144.694 60.5271 145.43 60.9452C146.165 61.3634 146.713 61.9547 147.073 62.7189L145.624 63.6707C145.379 63.0362 144.982 62.5747 144.435 62.2863C143.887 61.9835 143.317 61.8321 142.726 61.8321C142.207 61.8321 141.76 61.9042 141.385 62.0484C141.024 62.1926 140.743 62.3945 140.541 62.654C140.354 62.8992 140.26 63.1804 140.26 63.4976C140.26 63.8149 140.368 64.1105 140.584 64.3845C140.801 64.644 141.204 64.8315 141.796 64.9469L144.499 65.5093C145.509 65.7111 146.215 66.0428 146.619 66.5043C147.023 66.9657 147.225 67.5281 147.225 68.1914C147.225 68.8692 147.045 69.4676 146.684 69.9867C146.324 70.4915 145.819 70.8808 145.17 71.1548C144.521 71.4288 143.771 71.5658 142.92 71.5658Z" fill="white"/>
</svg>
